PathFileType	4	(X/Y/Z)	C:\Users\chris\Documents\GitHub\baseballds\vids\pitch6_Sports2D\pitch6_Sports2D_m_person00.trc
DataRate	CameraRate	NumFrames	NumMarkers	Units	OrigDataRate	OrigDataStartFrame	OrigNumFrames
30	30	6	22	m	30	162	186
Frame#	Time	Hip			RHip			RKnee			RAnkle			RBigToe			RSmallToe			RHeel			LHip			LKnee			LAnkle			LBigToe			LSmallToe			LHeel			Neck			Head			Nose			RShoulder			RElbow			RWrist			LShoulder			LElbow			LWrist		
		X1	Y1	Z1	X2	Y2	Z2	X3	Y3	Z3	X4	Y4	Z4	X5	Y5	Z5	X6	Y6	Z6	X7	Y7	Z7	X8	Y8	Z8	X9	Y9	Z9	X10	Y10	Z10	X11	Y11	Z11	X12	Y12	Z12	X13	Y13	Z13	X14	Y14	Z14	X15	Y15	Z15	X16	Y16	Z16	X17	Y17	Z17	X18	Y18	Z18	X19	Y19	Z19	X20	Y20	Z20	X21	Y21	Z21	X22	Y22	Z22
162	5.4	4.204307589497855	0.5950435373903207	0.0	4.142539699304868	0.5358203351379904	0.0	4.365575260974968	0.31143233604816223	0.0	4.601410992200539	0.09827400652335688	0.0	4.693934807603846	0.041162310954255016	0.0	4.640346207672304	0.008995559469608404	0.0	4.634001447026604	0.060101739923937296	0.0	4.269975466879659	0.6484488989321441	0.0	4.498765216035825	0.4354406626276751	0.0	4.722913287083412	0.25064243960618793	0.0	4.900410924526143	0.3129168483930803	0.0	4.8732021214006815	0.31433419013974206	0.0	4.736218435172242	0.18995379329943488	0.0	3.7893656764037167	0.901710050225997	0.0	3.6499617788285703	1.0817578332195548	0.0	3.813956913726187	1.0428660693844247	0.0	3.706906521955546	0.7444435373678167	0.0	3.756970144141966	0.5296961171336521	0.0	3.9877057298329714	0.47272993876940483	0.0	3.9673181219384683	0.934115768711557	0.0	4.106865980076634	0.8265148318773852	0.0	4.229703782414672	0.7455597905092369	0.0
163	5.433333333333334	4.186630633013426	0.5856666106624951	0.0	4.125019750911269	0.5261766994257929	0.0	4.349407486612176	0.3011319597013067	0.0	4.584736937685104	0.08923588520418453	0.0	4.679584200767619	0.032795453600680896	0.0	4.627252061139637	-0.00010228258758729147	0.0	4.617647135984676	0.05053346579283591	0.0	4.2541638964851956	0.6388354224287065	0.0	4.483613901144812	0.42556065807601984	0.0	4.708996463866105	0.24127299640487682	0.0	4.889517987717611	0.30473064807520406	0.0	4.861877300821282	0.3071926965503665	0.0	4.7202166378200126	0.18050841922714578	0.0	3.7724025033869726	0.8937752526528028	0.0	3.6317596565114227	1.0715580356909857	0.0	3.79486605177429	1.0344403350974931	0.0	3.6894720619192523	0.7365915656046724	0.0	3.7398030558148405	0.5202884308516497	0.0	3.9701304411350633	0.46322227110695435	0.0	3.9516575140029255	0.9243412084857967	0.0	4.089634000939714	0.814649125301387	0.0	4.212332277599271	0.7341503117669315	0.0
164	5.466666666666667	4.169840132686743	0.5770177332619074	0.0	4.107568854278168	0.5173317388019543	0.0	4.334579712667358	0.29197817279556293	0.0	4.568096930947259	0.08034350202744373	0.0	4.666321785623475	0.02562269469758805	0.0	4.614869612256841	-0.007233388732027028	0.0	4.6007028660002	0.04046111455294462	0.0	4.239464598326694	0.6301277595057798	0.0	4.469350255542151	0.4170914942324714	0.0	4.695927828291313	0.23408491095669842	0.0	4.87760102619914	0.2971969794388473	0.0	4.848786495562027	0.30128924544466024	0.0	4.705228078672203	0.17213820569168206	0.0	3.756884373966302	0.8863163968886371	0.0	3.6148183133214724	1.062296015581345	0.0	3.7774611463425063	1.0265719528546173	0.0	3.6734267689326385	0.728877876443222	0.0	3.7249863545607727	0.5106324492428485	0.0	3.954761356835354	0.4539499391715077	0.0	3.936405031679969	0.9145929602429708	0.0	4.07456957506289	0.8037551020318222	0.0	4.195994286910437	0.7234146310726197	0.0
165	5.5	4.155149898813056	0.5690114381953775	0.0	4.091511409892953	0.5087842652457826	0.0	4.320411723968369	0.2853468744389307	0.0	4.553594459671302	0.07232705609913119	0.0	4.653714901350527	0.015880121716381607	0.0	4.600086272442502	-0.016111946040993017	0.0	4.586586809933652	0.03191911412477863	0.0	4.224471778205335	0.622462176278139	0.0	4.45464289815525	0.4092735118243603	0.0	4.681519236673183	0.2280005946294376	0.0	4.863422314973187	0.29140254629582674	0.0	4.832318543577971	0.29501303998363754	0.0	4.6909365035365465	0.1640823798866325	0.0	3.742683621826835	0.8762403788540567	0.0	3.6005639846523314	1.0550510770203745	0.0	3.7633730322967125	1.0182799030010468	0.0	3.6578377082418148	0.71818884651801	0.0	3.711204806960597	0.5010017883647353	0.0	3.9413547477172237	0.44572765511639456	0.0	3.9200637105184053	0.905451268418443	0.0	4.06051791847098	0.7964320240480955	0.0	4.181952715018919	0.7169423043041127	0.0
166	5.533333333333333	4.142687087415583	0.5612263618403027	0.0	4.078073869192595	0.5006956959576359	0.0	4.306753192370295	0.2791101330460529	0.0	4.5419316466335875	0.06435264281803646	0.0	4.640349773784361	0.0051377960667820825	0.0	4.5850954897990155	-0.026111976350897816	0.0	4.57586198680756	0.02505006744136077	0.0	4.210146888710741	0.6148525422870581	0.0	4.440345553250764	0.40150016172508746	0.0	4.667004955159237	0.2206263100152164	0.0	4.84997124658747	0.28593090342365274	0.0	4.817652450882534	0.28790265747733124	0.0	4.678339448749535	0.156110463137955	0.0	3.7288574071758007	0.8659590305552136	0.0	3.5880830621256883	1.0483471343793642	0.0	3.7511786075333764	1.0096482883317923	0.0	3.6436782138361368	0.7078276645481196	0.0	3.6972976506718798	0.492671761584192	0.0	3.9279494802592034	0.4386047314777563	0.0	3.903983038767303	0.8970027188943431	0.0	4.045539824886617	0.7897026901273521	0.0	4.169332827333897	0.7120455941651659	0.0
167	5.566666666666666	4.130678983707537	0.5534336583714773	0.0	4.066961244892577	0.49296379596517625	0.0	4.294022182055017	0.2710120292575182	0.0	4.531439383075422	0.0562190254140025	0.0	4.626039358928824	-0.001994908818884468	0.0	4.573236614636687	-0.033258510092759735	0.0	4.565078166646329	0.018089066421813	0.0	4.197481366156649	0.6066999242835348	0.0	4.427864981430085	0.39393670170879064	0.0	4.654831201675122	0.2123921845359491	0.0	4.8406361185895665	0.2802434188368338	0.0	4.808972317419046	0.28145403779896605	0.0	4.668026030050317	0.14892484995615304	0.0	3.7149344698989104	0.8588080445580956	0.0	3.5751351382034144	1.0404681812468843	0.0	3.739143668358223	1.0015801359230458	0.0	3.631334877546085	0.700754400285598	0.0	3.6845317639344617	0.48521119056979967	0.0	3.9159291680384047	0.43196555173689727	0.0	3.8894026060823337	0.889005044841976	0.0	4.030183166763692	0.7806253714842657	0.0	4.155919091770873	0.7050449379110216	0.0
